<svg width="1200" height="420" viewBox="0 0 1200 420" xmlns="http://www.w3.org/2000/svg">
  <defs><linearGradient id="gold" x1="0" y1="0" x2="1" y2="1">
    <stop offset="0" stop-color="#E0BE63"/><stop offset="1" stop-color="#B8902F"/></linearGradient></defs>
  <rect width="1200" height="420" fill="#1B2A4A"/>
  <g transform="translate(150 210)">
    <rect x="-95" y="-95" width="190" height="190" rx="38" fill="#1B2A4A"/><rect x="-95" y="-95" width="190" height="190" rx="38" fill="none" stroke="url(#gold)" stroke-width="3"/>
    <path d="M 18 -52 C 26 -18, 30 -14, 64 -6 C 30 2, 26 6, 18 40 C 10 6, 6 2, -28 -6 C 6 -14, 10 -18, 18 -52 Z" fill="url(#gold)"/>
    <path d="M -34 22 C -30 6, -28 4, -12 0 C -28 -4, -30 -6, -34 -22 C -38 -6, -40 -4, -56 0 C -40 4, -38 6, -34 22 Z" fill="#FFFFFF" opacity="0.92"/>
  </g>
  <g transform="translate(290 0)">
    <text x="0" y="222" font-family="Arial, Helvetica, sans-serif" font-size="118" font-weight="700" letter-spacing="-2" fill="#FFFFFF">Bespoke</text>
    <rect x="4" y="250" width="430" height="6" rx="3" fill="url(#gold)"/>
    <text x="6" y="312" font-family="Arial, Helvetica, sans-serif" font-size="40" font-weight="400" letter-spacing="14" fill="#AEB8C7">COMMERCIAL SERVICES</text>
  </g>
</svg>